<svg xmlns="http://www.w3.org/2000/svg" xmlns:xlink="http://www.w3.org/1999/xlink" width="500" zoomAndPan="magnify" viewBox="0 0 375 374.999991" height="500" preserveAspectRatio="xMidYMid meet" version="1.0"><defs><g/></defs><g fill="#0c2950" fill-opacity="1"><g transform="translate(83.977111, 227.999985)"><g><path d="M 46.46875 2.085938 C 68.0625 2.085938 85.933594 -8.789062 85.933594 -31.277344 C 85.933594 -54.660156 65.976562 -59.574219 50.191406 -63.59375 C 39.019531 -66.277344 30.085938 -68.511719 30.085938 -75.808594 C 30.085938 -82.660156 37.382812 -85.785156 44.679688 -85.785156 C 53.167969 -85.785156 60.617188 -81.617188 60.617188 -72.53125 L 82.808594 -72.53125 C 82.808594 -93.382812 69.253906 -106.191406 45.277344 -106.191406 C 22.191406 -106.191406 7.445312 -94.871094 7.445312 -74.914062 C 7.445312 -52.425781 26.511719 -47.808594 42.296875 -43.9375 C 53.617188 -41.402344 63.148438 -39.167969 63.148438 -30.976562 C 63.148438 -23.234375 54.808594 -18.765625 46.320312 -18.765625 C 37.085938 -18.765625 28.746094 -23.679688 28.746094 -33.660156 L 5.957031 -33.660156 C 5.957031 -11.320312 22.488281 2.085938 46.46875 2.085938 Z M 46.46875 2.085938 "/></g></g></g><g fill="#0c2950" fill-opacity="1"><g transform="translate(176.167, 227.999985)"><g><path d="M 59.722656 2.382812 C 85.488281 2.382812 105.742188 -14.894531 110.511719 -40.660156 L 87.722656 -40.660156 C 84 -27.554688 73.425781 -19.210938 59.722656 -19.210938 C 42 -19.210938 28.746094 -33.210938 28.746094 -51.976562 C 28.746094 -70.742188 42 -84.894531 59.722656 -84.894531 C 72.828125 -84.894531 83.253906 -77.148438 87.574219 -64.9375 L 110.0625 -64.9375 C 105.296875 -89.660156 85.042969 -106.488281 59.722656 -106.488281 C 29.042969 -106.488281 5.808594 -82.957031 5.808594 -51.976562 C 5.808594 -21.148438 29.042969 2.382812 59.722656 2.382812 Z M 59.722656 2.382812 "/></g></g></g><g fill="#0c2950" fill-opacity="1"><g transform="translate(136.940621, 314.242069)"><g><path d="M 8.015625 -3.046875 C 8.015625 -2.035156 7.648438 -1.25 6.921875 -0.6875 C 6.191406 -0.125 5.203125 0.15625 3.953125 0.15625 C 2.597656 0.15625 1.554688 -0.0195312 0.828125 -0.375 L 0.828125 -1.65625 C 1.296875 -1.457031 1.804688 -1.300781 2.359375 -1.1875 C 2.910156 -1.070312 3.457031 -1.015625 4 -1.015625 C 4.882812 -1.015625 5.550781 -1.179688 6 -1.515625 C 6.445312 -1.847656 6.671875 -2.316406 6.671875 -2.921875 C 6.671875 -3.316406 6.59375 -3.640625 6.4375 -3.890625 C 6.28125 -4.140625 6.015625 -4.367188 5.640625 -4.578125 C 5.265625 -4.796875 4.695312 -5.039062 3.9375 -5.3125 C 2.875 -5.695312 2.113281 -6.148438 1.65625 -6.671875 C 1.207031 -7.191406 0.984375 -7.867188 0.984375 -8.703125 C 0.984375 -9.585938 1.3125 -10.289062 1.96875 -10.8125 C 2.632812 -11.332031 3.507812 -11.59375 4.59375 -11.59375 C 5.726562 -11.59375 6.773438 -11.382812 7.734375 -10.96875 L 7.3125 -9.8125 C 6.375 -10.207031 5.457031 -10.40625 4.5625 -10.40625 C 3.863281 -10.40625 3.316406 -10.253906 2.921875 -9.953125 C 2.523438 -9.648438 2.328125 -9.226562 2.328125 -8.6875 C 2.328125 -8.289062 2.398438 -7.96875 2.546875 -7.71875 C 2.691406 -7.46875 2.9375 -7.234375 3.28125 -7.015625 C 3.625 -6.804688 4.15625 -6.578125 4.875 -6.328125 C 6.070312 -5.898438 6.894531 -5.441406 7.34375 -4.953125 C 7.789062 -4.460938 8.015625 -3.828125 8.015625 -3.046875 Z M 8.015625 -3.046875 "/></g></g></g><g fill="#0c2950" fill-opacity="1"><g transform="translate(145.719727, 314.242069)"><g><path d="M 6.640625 0 L 6.390625 -1.21875 L 6.328125 -1.21875 C 5.898438 -0.6875 5.472656 -0.320312 5.046875 -0.125 C 4.617188 0.0625 4.085938 0.15625 3.453125 0.15625 C 2.609375 0.15625 1.941406 -0.0625 1.453125 -0.5 C 0.972656 -0.9375 0.734375 -1.5625 0.734375 -2.375 C 0.734375 -4.101562 2.117188 -5.007812 4.890625 -5.09375 L 6.34375 -5.140625 L 6.34375 -5.671875 C 6.34375 -6.335938 6.195312 -6.832031 5.90625 -7.15625 C 5.613281 -7.476562 5.148438 -7.640625 4.515625 -7.640625 C 3.804688 -7.640625 3 -7.421875 2.09375 -6.984375 L 1.703125 -7.96875 C 2.117188 -8.195312 2.578125 -8.375 3.078125 -8.5 C 3.585938 -8.632812 4.09375 -8.703125 4.59375 -8.703125 C 5.613281 -8.703125 6.367188 -8.472656 6.859375 -8.015625 C 7.359375 -7.566406 7.609375 -6.84375 7.609375 -5.84375 L 7.609375 0 Z M 3.71875 -0.921875 C 4.519531 -0.921875 5.148438 -1.140625 5.609375 -1.578125 C 6.078125 -2.023438 6.3125 -2.644531 6.3125 -3.4375 L 6.3125 -4.21875 L 5.015625 -4.15625 C 3.984375 -4.125 3.238281 -3.960938 2.78125 -3.671875 C 2.320312 -3.390625 2.09375 -2.953125 2.09375 -2.359375 C 2.09375 -1.890625 2.234375 -1.53125 2.515625 -1.28125 C 2.804688 -1.039062 3.207031 -0.921875 3.71875 -0.921875 Z M 3.71875 -0.921875 "/></g></g></g><g fill="#0c2950" fill-opacity="1"><g transform="translate(154.615997, 314.242069)"><g><path d="M 2.671875 0 L 1.375 0 L 1.375 -8.5625 L 2.671875 -8.5625 Z M 1.265625 -10.890625 C 1.265625 -11.179688 1.335938 -11.394531 1.484375 -11.53125 C 1.628906 -11.675781 1.8125 -11.75 2.03125 -11.75 C 2.238281 -11.75 2.414062 -11.675781 2.5625 -11.53125 C 2.71875 -11.394531 2.796875 -11.179688 2.796875 -10.890625 C 2.796875 -10.597656 2.71875 -10.378906 2.5625 -10.234375 C 2.414062 -10.085938 2.238281 -10.015625 2.03125 -10.015625 C 1.8125 -10.015625 1.628906 -10.085938 1.484375 -10.234375 C 1.335938 -10.378906 1.265625 -10.597656 1.265625 -10.890625 Z M 1.265625 -10.890625 "/></g></g></g><g fill="#0c2950" fill-opacity="1"><g transform="translate(158.661884, 314.242069)"><g><path d="M 5.28125 -8.71875 C 5.664062 -8.71875 6.007812 -8.6875 6.3125 -8.625 L 6.125 -7.421875 C 5.769531 -7.503906 5.457031 -7.546875 5.1875 -7.546875 C 4.5 -7.546875 3.90625 -7.265625 3.40625 -6.703125 C 2.914062 -6.140625 2.671875 -5.4375 2.671875 -4.59375 L 2.671875 0 L 1.375 0 L 1.375 -8.5625 L 2.453125 -8.5625 L 2.59375 -6.984375 L 2.65625 -6.984375 C 2.976562 -7.535156 3.363281 -7.960938 3.8125 -8.265625 C 4.257812 -8.566406 4.75 -8.71875 5.28125 -8.71875 Z M 5.28125 -8.71875 "/></g></g></g><g fill="#0c2950" fill-opacity="1"><g transform="translate(165.191539, 314.242069)"><g/></g></g><g fill="#0c2950" fill-opacity="1"><g transform="translate(169.346774, 314.242069)"><g><path d="M 4.484375 -5.71875 L 7.53125 -11.421875 L 8.96875 -11.421875 L 5.15625 -4.4375 L 5.15625 0 L 3.8125 0 L 3.8125 -4.375 L 0 -11.421875 L 1.453125 -11.421875 Z M 4.484375 -5.71875 "/></g></g></g><g fill="#0c2950" fill-opacity="1"><g transform="translate(178.305529, 314.242069)"><g/></g></g><g fill="#0c2950" fill-opacity="1"><g transform="translate(182.460764, 314.242069)"><g><path d="M 6.46875 -10.40625 C 5.207031 -10.40625 4.210938 -9.984375 3.484375 -9.140625 C 2.765625 -8.304688 2.40625 -7.164062 2.40625 -5.71875 C 2.40625 -4.21875 2.753906 -3.0625 3.453125 -2.25 C 4.148438 -1.4375 5.148438 -1.03125 6.453125 -1.03125 C 7.242188 -1.03125 8.148438 -1.171875 9.171875 -1.453125 L 9.171875 -0.296875 C 8.378906 0.00390625 7.40625 0.15625 6.25 0.15625 C 4.5625 0.15625 3.257812 -0.351562 2.34375 -1.375 C 1.4375 -2.394531 0.984375 -3.847656 0.984375 -5.734375 C 0.984375 -6.910156 1.203125 -7.941406 1.640625 -8.828125 C 2.078125 -9.710938 2.710938 -10.394531 3.546875 -10.875 C 4.378906 -11.351562 5.359375 -11.59375 6.484375 -11.59375 C 7.679688 -11.59375 8.726562 -11.375 9.625 -10.9375 L 9.0625 -9.796875 C 8.195312 -10.203125 7.332031 -10.40625 6.46875 -10.40625 Z M 6.46875 -10.40625 "/></g></g></g><g fill="#0c2950" fill-opacity="1"><g transform="translate(192.552049, 314.242069)"><g><path d="M 2.671875 0 L 1.375 0 L 1.375 -12.15625 L 2.671875 -12.15625 Z M 2.671875 0 "/></g></g></g><g fill="#0c2950" fill-opacity="1"><g transform="translate(196.597935, 314.242069)"><g><path d="M 6.640625 0 L 6.390625 -1.21875 L 6.328125 -1.21875 C 5.898438 -0.6875 5.472656 -0.320312 5.046875 -0.125 C 4.617188 0.0625 4.085938 0.15625 3.453125 0.15625 C 2.609375 0.15625 1.941406 -0.0625 1.453125 -0.5 C 0.972656 -0.9375 0.734375 -1.5625 0.734375 -2.375 C 0.734375 -4.101562 2.117188 -5.007812 4.890625 -5.09375 L 6.34375 -5.140625 L 6.34375 -5.671875 C 6.34375 -6.335938 6.195312 -6.832031 5.90625 -7.15625 C 5.613281 -7.476562 5.148438 -7.640625 4.515625 -7.640625 C 3.804688 -7.640625 3 -7.421875 2.09375 -6.984375 L 1.703125 -7.96875 C 2.117188 -8.195312 2.578125 -8.375 3.078125 -8.5 C 3.585938 -8.632812 4.09375 -8.703125 4.59375 -8.703125 C 5.613281 -8.703125 6.367188 -8.472656 6.859375 -8.015625 C 7.359375 -7.566406 7.609375 -6.84375 7.609375 -5.84375 L 7.609375 0 Z M 3.71875 -0.921875 C 4.519531 -0.921875 5.148438 -1.140625 5.609375 -1.578125 C 6.078125 -2.023438 6.3125 -2.644531 6.3125 -3.4375 L 6.3125 -4.21875 L 5.015625 -4.15625 C 3.984375 -4.125 3.238281 -3.960938 2.78125 -3.671875 C 2.320312 -3.390625 2.09375 -2.953125 2.09375 -2.359375 C 2.09375 -1.890625 2.234375 -1.53125 2.515625 -1.28125 C 2.804688 -1.039062 3.207031 -0.921875 3.71875 -0.921875 Z M 3.71875 -0.921875 "/></g></g></g><g fill="#0c2950" fill-opacity="1"><g transform="translate(205.494205, 314.242069)"><g><path d="M 2.59375 -8.5625 L 2.59375 -3.015625 C 2.59375 -2.316406 2.75 -1.796875 3.0625 -1.453125 C 3.382812 -1.109375 3.882812 -0.9375 4.5625 -0.9375 C 5.457031 -0.9375 6.113281 -1.179688 6.53125 -1.671875 C 6.945312 -2.160156 7.15625 -2.957031 7.15625 -4.0625 L 7.15625 -8.5625 L 8.453125 -8.5625 L 8.453125 0 L 7.375 0 L 7.1875 -1.15625 L 7.125 -1.15625 C 6.851562 -0.726562 6.484375 -0.398438 6.015625 -0.171875 C 5.546875 0.046875 5.007812 0.15625 4.40625 0.15625 C 3.363281 0.15625 2.582031 -0.0859375 2.0625 -0.578125 C 1.539062 -1.078125 1.28125 -1.875 1.28125 -2.96875 L 1.28125 -8.5625 Z M 2.59375 -8.5625 "/></g></g></g><g fill="#0c2950" fill-opacity="1"><g transform="translate(215.312125, 314.242069)"><g><path d="M 7.203125 -1.15625 L 7.140625 -1.15625 C 6.535156 -0.28125 5.640625 0.15625 4.453125 0.15625 C 3.328125 0.15625 2.453125 -0.222656 1.828125 -0.984375 C 1.210938 -1.753906 0.90625 -2.847656 0.90625 -4.265625 C 0.90625 -5.671875 1.21875 -6.765625 1.84375 -7.546875 C 2.46875 -8.328125 3.335938 -8.71875 4.453125 -8.71875 C 5.609375 -8.71875 6.5 -8.296875 7.125 -7.453125 L 7.21875 -7.453125 L 7.171875 -8.078125 L 7.140625 -8.671875 L 7.140625 -12.15625 L 8.4375 -12.15625 L 8.4375 0 L 7.375 0 Z M 4.609375 -0.9375 C 5.492188 -0.9375 6.132812 -1.175781 6.53125 -1.65625 C 6.9375 -2.132812 7.140625 -2.910156 7.140625 -3.984375 L 7.140625 -4.265625 C 7.140625 -5.472656 6.9375 -6.335938 6.53125 -6.859375 C 6.125 -7.378906 5.476562 -7.640625 4.59375 -7.640625 C 3.832031 -7.640625 3.25 -7.34375 2.84375 -6.75 C 2.445312 -6.15625 2.25 -5.320312 2.25 -4.25 C 2.25 -3.15625 2.445312 -2.328125 2.84375 -1.765625 C 3.25 -1.210938 3.835938 -0.9375 4.609375 -0.9375 Z M 4.609375 -0.9375 "/></g></g></g><g fill="#0c2950" fill-opacity="1"><g transform="translate(225.114424, 314.242069)"><g><path d="M 2.671875 0 L 1.375 0 L 1.375 -8.5625 L 2.671875 -8.5625 Z M 1.265625 -10.890625 C 1.265625 -11.179688 1.335938 -11.394531 1.484375 -11.53125 C 1.628906 -11.675781 1.8125 -11.75 2.03125 -11.75 C 2.238281 -11.75 2.414062 -11.675781 2.5625 -11.53125 C 2.71875 -11.394531 2.796875 -11.179688 2.796875 -10.890625 C 2.796875 -10.597656 2.71875 -10.378906 2.5625 -10.234375 C 2.414062 -10.085938 2.238281 -10.015625 2.03125 -10.015625 C 1.8125 -10.015625 1.628906 -10.085938 1.484375 -10.234375 C 1.335938 -10.378906 1.265625 -10.597656 1.265625 -10.890625 Z M 1.265625 -10.890625 "/></g></g></g><g fill="#0c2950" fill-opacity="1"><g transform="translate(229.160311, 314.242069)"><g><path d="M 6.640625 0 L 6.390625 -1.21875 L 6.328125 -1.21875 C 5.898438 -0.6875 5.472656 -0.320312 5.046875 -0.125 C 4.617188 0.0625 4.085938 0.15625 3.453125 0.15625 C 2.609375 0.15625 1.941406 -0.0625 1.453125 -0.5 C 0.972656 -0.9375 0.734375 -1.5625 0.734375 -2.375 C 0.734375 -4.101562 2.117188 -5.007812 4.890625 -5.09375 L 6.34375 -5.140625 L 6.34375 -5.671875 C 6.34375 -6.335938 6.195312 -6.832031 5.90625 -7.15625 C 5.613281 -7.476562 5.148438 -7.640625 4.515625 -7.640625 C 3.804688 -7.640625 3 -7.421875 2.09375 -6.984375 L 1.703125 -7.96875 C 2.117188 -8.195312 2.578125 -8.375 3.078125 -8.5 C 3.585938 -8.632812 4.09375 -8.703125 4.59375 -8.703125 C 5.613281 -8.703125 6.367188 -8.472656 6.859375 -8.015625 C 7.359375 -7.566406 7.609375 -6.84375 7.609375 -5.84375 L 7.609375 0 Z M 3.71875 -0.921875 C 4.519531 -0.921875 5.148438 -1.140625 5.609375 -1.578125 C 6.078125 -2.023438 6.3125 -2.644531 6.3125 -3.4375 L 6.3125 -4.21875 L 5.015625 -4.15625 C 3.984375 -4.125 3.238281 -3.960938 2.78125 -3.671875 C 2.320312 -3.390625 2.09375 -2.953125 2.09375 -2.359375 C 2.09375 -1.890625 2.234375 -1.53125 2.515625 -1.28125 C 2.804688 -1.039062 3.207031 -0.921875 3.71875 -0.921875 Z M 3.71875 -0.921875 "/></g></g></g></svg>